<?xml version="1.0" encoding="UTF-8" standalone="no"?>
<svg
   xmlns:dc="http://purl.org/dc/elements/1.1/"
   xmlns:cc="http://creativecommons.org/ns#"
   xmlns:rdf="http://www.w3.org/1999/02/22-rdf-syntax-ns#"
   xmlns:svg="http://www.w3.org/2000/svg"
   xmlns="http://www.w3.org/2000/svg"
   xmlns:sodipodi="http://sodipodi.sourceforge.net/DTD/sodipodi-0.dtd"
   xmlns:inkscape="http://www.inkscape.org/namespaces/inkscape"
   sodipodi:docname="be_clean_icon.svg"
   inkscape:version="1.0 (4035a4fb49, 2020-05-01)"
   id="svg2761"
   version="1.1"
   viewBox="0 0 264.58333 264.58333"
   height="1000"
   width="1000">
  <defs
     id="defs2755" />
  <sodipodi:namedview
     inkscape:showpageshadow="false"
     borderlayer="true"
     showborder="true"
     inkscape:pagecheckerboard="true"
     inkscape:window-maximized="1"
     inkscape:window-y="-8"
     inkscape:window-x="-8"
     inkscape:window-height="1052"
     inkscape:window-width="1920"
     showgrid="false"
     inkscape:document-rotation="0"
     inkscape:current-layer="layer2"
     inkscape:document-units="mm"
     inkscape:cy="579.671"
     inkscape:cx="397.82015"
     inkscape:zoom="0.49497475"
     inkscape:pageshadow="2"
     inkscape:pageopacity="0"
     borderopacity="1"
     bordercolor="#000000"
     pagecolor="#a9a9a9"
     id="base"
     units="px"
     inkscape:snap-page="true"
     inkscape:snap-global="false" />
  <metadata
     id="metadata2758">
    <rdf:RDF>
      <cc:Work
         rdf:about="">
        <dc:format>image/svg+xml</dc:format>
        <dc:type
           rdf:resource="http://purl.org/dc/dcmitype/StillImage" />
        <dc:title />
      </cc:Work>
    </rdf:RDF>
  </metadata>
  <g
     inkscape:groupmode="layer"
     id="layer2"
     inkscape:label="layer 1">
    <path
       inkscape:transform-center-y="-3.2914927e-06"
       inkscape:randomized="0"
       inkscape:rounded="0"
       inkscape:flatsided="false"
       sodipodi:arg2="1.2042693"
       sodipodi:arg1="0.8115702"
       sodipodi:r2="105.6534"
       sodipodi:r1="127.29325"
       sodipodi:cy="132.29163"
       sodipodi:cx="132.29167"
       sodipodi:sides="8"
       id="path5390"
       style="fill:none;fill-opacity:1;stroke:#ffffff;stroke-width:4;stroke-linecap:round;stroke-miterlimit:4;stroke-dasharray:none"
       sodipodi:type="star"
       inkscape:transform-center-x="2.7594102e-06"
       d="m 219.91529,224.6262 -49.76005,6.30107 -41.19471,28.61401 L 89.319325,228.81115 39.957102,219.91525 33.656027,170.15519 5.0420146,128.96048 35.772152,89.319279 44.66805,39.957056 94.428103,33.655981 135.62282,5.0419688 l 39.6412,30.7301382 49.36222,8.895898 6.30108,49.760052 28.61401,41.194713 -30.73014,39.6412 z" />
    <path
       id="path5490"
       d="m 105.25111,194.7779 c -9.565949,-1.21251 -17.273964,-4.93982 -23.888858,-11.55161 -5.970389,-5.96765 -9.178979,-11.97687 -10.997784,-20.59684 -0.559857,-2.6533 -0.636047,-3.54943 -0.63203,-7.4276 0.0036,-3.83435 0.08641,-4.80114 0.631908,-7.40429 0.848244,-4.04814 1.780711,-6.80032 3.39389,-10.017 4.871609,-9.71371 12.722266,-16.59039 22.959983,-20.11159 4.498021,-1.54703 6.667651,-1.88228 12.312291,-1.90254 4.85926,-0.0183 5.80578,0.0748 9.95274,0.96886 l 0.65558,0.14118 V 94.212844 c 0,-17.063471 0.0706,-22.818071 0.2848,-23.288655 0.62308,-1.367451 -0.77936,-1.304467 29.03717,-1.304467 29.81652,0 28.41408,-0.06268 29.03711,1.304467 0.21238,0.466141 0.28479,4.906538 0.28479,17.420318 v 16.795283 h 7.61521 7.61522 l 0.66884,0.57507 0.66885,0.57507 v 17.12512 c 0,15.90925 -0.0304,17.21287 -0.43145,18.36161 -1.10615,3.17086 -3.76042,5.81801 -6.76393,6.74567 -1.50468,0.46492 -2.17912,0.48014 -20.36596,0.48014 h -18.8098 l 0.18135,1.37073 c 0.3353,2.53847 0.17343,9.77919 -0.27019,12.09827 -0.42902,2.24533 -1.19865,5.03275 -1.53024,5.54399 -0.15213,0.23428 -0.55377,0.18804 -1.84795,-0.21178 -2.30126,-0.71108 -2.27607,-0.67639 -1.76033,-2.42016 1.01371,-3.42742 1.29303,-5.63703 1.28719,-10.18319 -0.0122,-6.16798 -0.78246,-9.78338 -3.19545,-14.91423 -4.84179,-10.29535 -14.16195,-17.55596 -25.43011,-19.81073 -2.94156,-0.58845 -10.06805,-0.59211 -13.08136,-0.005 -9.809367,1.90692 -18.786006,8.13649 -23.7677,16.49449 -2.157093,3.61892 -3.916565,8.2728 -4.591923,12.14591 -1.977087,11.33729 1.638129,22.823 9.763907,31.02077 5.286451,5.33325 11.701804,8.64401 19.668446,10.15033 2.36564,0.44728 8.98175,0.37182 11.5619,-0.13205 4.2254,-0.82476 8.51032,-2.45211 12.22771,-4.64395 l 1.22365,-0.72149 1.19609,1.71687 1.19608,1.717 -0.53186,0.41807 c -1.08856,0.85609 -6.66766,3.54797 -8.79256,4.24238 -5.11849,1.67263 -12.18912,2.47481 -16.73522,1.89858 z m 70.08218,-51.07831 c -1.40987,-2.43903 -1.34153,-0.57142 -1.34153,-36.69578 V 73.910904 H 148.9608 123.92983 l 0.0183,22.229917 0.0183,22.229859 3.02506,1.49591 c 1.66374,0.82275 4.04417,2.21478 5.28979,3.09333 2.88442,2.03447 7.28435,6.43726 9.35053,9.35649 1.88976,2.67022 4.15505,7.09929 5.21221,10.19123 l 0.75398,2.20504 h 14.16432 14.16439 l -0.58542,-1.01309 z M 148.9608,134.4645 v -2.14809 h 10.49841 10.49848 l -0.0688,2.08596 -0.0688,2.08589 -10.42959,0.0621 -10.42947,0.0621 z m -8.34364,-12.63908 v -2.14729 l 14.60132,0.0615 14.60143,0.0615 0.0688,2.08596 0.0688,2.08589 h -14.67026 -14.67026 z m -12.47441,-10.40653 c -0.0882,-0.0882 -0.16065,-1.05417 -0.16065,-2.1468 v -1.98658 h 20.98764 20.98758 l -0.0688,2.08589 -0.0688,2.08595 -20.75846,0.0609 c -11.41719,0.0304 -20.83058,-0.0122 -20.91876,-0.0992 z m 0.62783,-10.90686 -0.6689,-0.575074 v -9.338477 -9.338538 l 0.6689,-0.57507 0.66885,-0.575071 h 8.91512 c 6.02595,0 9.10333,0.0858 9.49602,0.264715 0.31949,0.14605 0.70001,0.526388 0.84557,0.845628 0.1783,0.392508 0.26472,3.43874 0.26472,9.378884 0,5.940145 -0.0864,8.986741 -0.26472,9.378945 -0.14605,0.319488 -0.52639,0.700008 -0.84557,0.845568 -0.3925,0.17891 -3.47007,0.26471 -9.49602,0.26471 h -8.91512 z M 144.6698,90.598236 V 84.40007 h -6.19817 -6.1981 v 6.198166 6.198105 h 6.1981 6.19817 z m 8.3939,6.257742 0.0688,-2.085955 h 8.34364 8.34369 l 0.0688,2.085955 0.0688,2.085832 h -8.48141 -8.4814 z m 0.11136,-10.466285 c -0.0895,-0.08946 -0.16187,-1.055939 -0.16187,-2.148513 v -1.986579 h 8.4721 8.47215 l -0.0688,2.085893 -0.0688,2.085894 -8.24121,0.06268 c -4.53272,0.03651 -8.31419,-0.01217 -8.40328,-0.0998 z m 34.08099,57.651767 c 0.54282,-0.27688 1.37695,-0.95918 1.85289,-1.5152 1.58129,-1.84735 1.56979,-1.71383 1.56979,-18.23917 v -14.85605 h -6.19817 -6.1981 v 15.09527 c 0,17.04758 -0.0487,16.57749 1.78594,18.40907 0.54769,0.54769 1.46987,1.1701 2.04871,1.38248 1.41803,0.5203 3.83277,0.39068 5.13894,-0.27688 z m -50.27936,44.05881 c -0.33287,-0.26228 -0.93046,-1.17089 -1.32777,-2.01993 -0.99533,-2.12703 -2.53963,-3.70035 -4.77199,-4.86175 -2.33315,-1.21386 -2.7755,-1.69393 -2.7755,-3.01209 0,-1.31816 0.44241,-1.79824 2.7755,-3.01209 2.23236,-1.1614 3.77666,-2.73472 4.77199,-4.86175 0.88512,-1.89135 1.59474,-2.49794 2.91417,-2.49082 1.26905,0.005 1.7714,0.44302 2.8753,2.49781 1.42581,2.65373 2.22975,3.47635 4.65667,4.76524 2.25634,1.19822 2.86543,1.85757 2.86543,3.10161 0,1.24398 -0.60909,1.90333 -2.86543,3.10155 -2.42692,1.28888 -3.23086,2.11157 -4.65667,4.76529 -0.49292,0.91786 -1.12106,1.8541 -1.39545,2.0806 -0.69538,0.57386 -2.30381,0.54586 -3.06625,-0.0548 z m 4.18962,-8.69343 1.30982,-1.13079 -2.04786,-2.02497 -2.0478,-2.02492 -0.48257,0.67907 c -0.60307,0.84812 -1.69345,1.94489 -2.70338,2.7189 l -0.77394,0.59332 1.20801,0.94817 c 0.6644,0.52152 1.58622,1.45946 2.04853,2.08437 l 0.84058,1.13621 0.66951,-0.92419 c 0.36817,-0.50874 1.25883,-1.43306 1.97922,-2.05492 z m -41.16295,-3.49959 c -0.244631,-0.1424 -3.28435,-3.10337 -6.754977,-6.58051 l -6.310137,-6.32207 1.383699,-1.3983 c 0.761101,-0.76907 1.49354,-1.3983 1.627723,-1.3983 0.134488,0 2.658469,2.40665 5.609586,5.34815 l 5.365686,5.34822 2.5356,-2.90474 c 1.39465,-1.59754 4.38819,-4.99655 6.6522,-7.55327 2.26413,-2.55672 5.53279,-6.25768 7.26372,-8.22442 11.05693,-12.56313 13.06067,-14.78017 13.35807,-14.78017 0.18256,0 0.97494,0.56595 1.76105,1.25798 l 1.42916,1.25803 -5.62979,6.37045 c -3.09638,3.50373 -7.08852,8.01837 -8.87142,10.03251 -1.7829,2.01409 -3.67072,4.15968 -4.19522,4.7678 -3.45328,4.00443 -11.99202,13.63519 -12.65782,14.27678 -0.8421,0.81136 -1.73428,0.98571 -2.56713,0.50204 z m -19.032217,-56.356 c -0.40468,-0.2203 -1.006465,-1.04572 -1.618717,-2.22245 -1.298747,-2.49642 -2.63711,-3.84519 -4.988692,-5.02752 -2.029726,-1.02052 -2.641369,-1.73014 -2.641369,-3.06467 0,-1.02065 0.769986,-1.83189 2.571752,-2.70965 2.09776,-1.02186 4.024155,-2.94168 5.05344,-5.03622 0.946524,-1.926089 1.646223,-2.54893 2.864034,-2.54893 1.20558,0 1.916172,0.620833 2.826061,2.46909 1.114116,2.26304 2.554288,3.73693 4.785805,4.8979 2.100316,1.09276 2.877239,1.88325 2.877239,2.92781 0,1.33453 -0.611644,2.04415 -2.641369,3.06467 -2.352008,1.18257 -3.689945,2.53116 -4.989726,5.0294 -1.284994,2.46994 -2.463128,3.1083 -4.098458,2.22057 z m 1.772069,-6.73801 c 0.427195,-0.72276 2.392841,-2.64398 3.166053,-3.094 0.452754,-0.26289 0.435106,-0.30609 -0.360256,-0.92936 -1.072613,-0.84009 -2.141879,-1.91173 -2.809387,-2.81553 l -0.528213,-0.71516 -0.530647,0.71516 c -0.659476,0.88907 -1.455203,1.68778 -2.68774,2.69784 -0.902161,0.73943 -0.928024,0.79609 -0.47953,1.05222 0.76317,0.43572 2.735754,2.36035 3.166053,3.08883 0.217857,0.36878 0.457013,0.67037 0.531864,0.67037 0.07485,0 0.314007,-0.30123 0.531864,-0.67037 z"
       style="fill:#ffffff;stroke-width:0.0994118" />
  </g>
</svg>
