<?xml version="1.0" encoding="UTF-8" standalone="no"?>
<svg
   xmlns:dc="http://purl.org/dc/elements/1.1/"
   xmlns:cc="http://creativecommons.org/ns#"
   xmlns:rdf="http://www.w3.org/1999/02/22-rdf-syntax-ns#"
   xmlns:svg="http://www.w3.org/2000/svg"
   xmlns="http://www.w3.org/2000/svg"
   xmlns:sodipodi="http://sodipodi.sourceforge.net/DTD/sodipodi-0.dtd"
   xmlns:inkscape="http://www.inkscape.org/namespaces/inkscape"
   width="1000"
   height="1000"
   viewBox="0 0 264.58333 264.58333"
   version="1.1"
   id="svg2761"
   inkscape:version="1.0 (4035a4fb49, 2020-05-01)"
   sodipodi:docname="be_teachable_icon.svg">
  <defs
     id="defs2755" />
  <sodipodi:namedview
     inkscape:snap-global="false"
     inkscape:snap-page="true"
     units="px"
     id="base"
     pagecolor="#a9a9a9"
     bordercolor="#000000"
     borderopacity="1"
     inkscape:pageopacity="0"
     inkscape:pageshadow="2"
     inkscape:zoom="0.7"
     inkscape:cx="405.93282"
     inkscape:cy="665.35069"
     inkscape:document-units="mm"
     inkscape:current-layer="layer2"
     inkscape:document-rotation="0"
     showgrid="false"
     inkscape:window-width="1920"
     inkscape:window-height="1052"
     inkscape:window-x="-8"
     inkscape:window-y="-8"
     inkscape:window-maximized="1"
     inkscape:pagecheckerboard="true"
     showborder="true"
     borderlayer="true"
     inkscape:showpageshadow="false" />
  <metadata
     id="metadata2758">
    <rdf:RDF>
      <cc:Work
         rdf:about="">
        <dc:format>image/svg+xml</dc:format>
        <dc:type
           rdf:resource="http://purl.org/dc/dcmitype/StillImage" />
        <dc:title></dc:title>
      </cc:Work>
    </rdf:RDF>
  </metadata>
  <g
     inkscape:label="layer 1"
     id="layer2"
     inkscape:groupmode="layer">
    <path
       inkscape:transform-center-y="-3.2914927e-06"
       inkscape:randomized="0"
       inkscape:rounded="0"
       inkscape:flatsided="false"
       sodipodi:arg2="1.2042693"
       sodipodi:arg1="0.8115702"
       sodipodi:r2="105.65324"
       sodipodi:r1="127.29306"
       sodipodi:cy="132.2917"
       sodipodi:cx="132.29169"
       sodipodi:sides="8"
       id="path5394"
       style="fill:none;fill-opacity:1;stroke:#ffffff;stroke-width:4;stroke-linecap:round;stroke-miterlimit:4;stroke-dasharray:none"
       sodipodi:type="star"
       inkscape:transform-center-x="-8.0888641e-06"
       d="M 219.91518,224.62613 170.1552,230.9272 128.96055,259.54117 89.319405,228.81108 39.957256,219.91519 33.656192,170.15521 5.0422205,128.96056 35.772314,89.319421 44.668197,39.957271 94.428176,33.656207 135.62283,5.0422358 l 39.64114,30.7300932 49.36215,8.895883 6.30106,49.759979 28.61397,41.194649 -30.73009,39.64114 z" />
    <path
       d="m 136.21094,64.921875 c -5.76131,0.06005 -11.50836,0.907168 -17.07487,2.379246 -7.73232,2.031764 -15.00534,5.923737 -20.78246,11.476886 -6.575344,6.262424 -11.354602,14.635599 -12.528672,23.706683 -0.51372,4.5693 -0.339394,9.28888 1.116945,13.68167 0.705754,2.22871 1.11423,4.85934 -0.234833,6.93979 -3.795251,6.91464 -8.124367,13.56243 -11.865253,20.52471 -0.727118,1.58774 -0.152674,3.63669 1.146406,4.76117 2.281141,1.50019 4.944001,2.26865 7.336016,3.56305 -0.875153,2.2208 -2.662591,4.14541 -2.804688,6.61328 -0.03144,1.68259 1.583644,2.68316 2.949219,3.26758 0.563997,0.25073 1.405512,0.40914 0.703645,1.08101 -0.84217,1.52953 -1.943973,3.36657 -1.21927,5.14946 0.71078,1.56098 2.509278,1.98631 3.923828,2.65039 -0.11101,2.14876 -0.43622,4.40027 -0.367959,6.59953 0.07419,3.4715 0.509574,7.26096 2.87546,9.98977 2.033381,2.42508 5.433741,3.25501 8.469339,2.7386 2.208137,-0.32774 4.237537,-1.33593 6.327927,-2.06899 4.76034,-1.814 9.46859,-3.82902 14.23625,-5.54212 0.51888,-0.42338 0.82913,0.27562 1.13115,0.68183 2.82112,4.07847 5.40597,8.35259 7.23257,12.97713 0.6051,1.27583 1.22145,2.86566 2.67143,3.35862 4.90268,0.19212 9.81501,0.13706 14.72176,0.19067 11.31203,0.0233 22.62471,0.08 33.93645,-0.0188 1.33738,-0.11798 2.77122,0.10916 4.0332,-0.43164 1.40093,-0.76462 2.27107,-2.46779 2.05078,-4.04493 -0.59789,-2.15554 -1.7022,-4.13117 -2.4751,-6.22626 -2.1947,-5.3022 -3.76183,-10.9223 -4.57345,-16.62812 -0.51042,-3.77104 -0.53385,-7.67787 -0.2708,-11.5264 0.39424,-3.8424 1.436,-7.63166 3.22784,-11.06333 2.15966,-4.28847 4.5356,-8.50221 5.98882,-13.10331 2.27041,-6.74324 3.71975,-13.78824 3.91218,-20.9135 0.28402,-8.21019 -0.42358,-16.619789 -3.56232,-24.287761 -2.82954,-7.118116 -7.53036,-13.586415 -13.86457,-17.970539 -6.50448,-4.570172 -14.29513,-6.990801 -22.1109,-8.062437 -4.73553,-0.429356 -9.50372,-0.473312 -14.25607,-0.442948 z m 3.5625,4.167969 c 6.51727,-0.02308 13.0881,0.529939 19.35906,2.468876 6.54067,1.884367 12.62516,5.682648 17.00617,10.794796 4.94776,5.70151 7.82076,13.072235 9.03646,20.505374 1.38565,8.50382 0.70022,17.19948 -1.18685,25.55517 -1.35592,6.12297 -3.68401,12.01974 -6.704,17.47677 -1.86558,3.39077 -3.34566,7.01533 -4.04806,10.83396 -1.50452,7.34337 -0.8305,14.97489 0.88658,22.21746 1.35941,5.54655 3.2634,10.95334 5.60312,16.16124 0.40285,0.62374 -0.55309,0.3164 -0.90866,0.40777 -11.30355,0.21931 -22.61074,0.19213 -33.91608,0.18712 -4.54702,-0.0308 -9.16965,0.009 -13.66876,-0.14955 -1.00452,-2.03802 -1.77123,-4.19021 -2.8883,-6.1762 -1.59349,-3.08305 -3.47503,-6.00252 -5.391,-8.89216 4.78349,-1.95273 9.62977,-3.75064 14.35146,-5.84686 0.88558,-0.46018 2.22583,-0.98491 2.14543,-2.18828 -0.11594,-0.84588 -0.50186,-2.01861 -1.5672,-1.91994 -2.01304,0.22788 -3.87129,1.1423 -5.76759,1.80383 -11.09184,4.33871 -22.07492,8.94559 -33.221147,13.1532 -1.929627,0.59362 -4.369135,0.83257 -5.979166,-0.63512 -1.651756,-1.79208 -2.002194,-4.36572 -2.165225,-6.70534 -0.170167,-2.88068 0.269054,-5.66189 0.715317,-8.50281 0.239577,-1.23854 -0.859763,-2.15952 -1.912068,-2.52948 -0.770429,-0.33426 -1.580858,-0.5618 -2.37129,-0.84405 0.630216,-1.38418 1.738906,-2.60388 1.9375,-4.15039 0.09949,-1.41354 -0.756169,-2.77638 -2.054249,-3.33167 -0.666596,-0.35446 -1.38751,-0.59204 -2.068798,-0.91637 0.894345,-2.01183 2.594405,-3.77432 2.703125,-6.06836 -0.08716,-1.60709 -1.104375,-3.18321 -2.619141,-3.79492 -2.084705,-0.99657 -4.264654,-1.79753 -6.304687,-2.88477 4.020453,-7.14796 8.476429,-14.07604 12.413085,-21.29779 0.541397,-1.3236 0.487059,-2.81063 0.60668,-4.21736 0.255158,-2.25674 -0.784879,-4.32677 -1.285833,-6.46389 -0.962307,-3.75085 -0.928297,-7.63035 -0.234693,-11.44978 1.096299,-6.527954 4.446009,-12.521488 8.718263,-17.464061 3.381517,-3.943722 7.622797,-7.075001 12.219747,-9.399434 8.75064,-4.488898 18.78018,-5.732374 28.5608,-5.736981 z m 3.42578,5.359375 c -1.85437,0.08581 -3.62633,0.826348 -5.07813,1.958984 -1.38078,-0.395005 -2.69987,-1.056533 -4.13095,-1.316071 -4.51087,-1.067601 -9.59298,-0.08439 -13.06026,3.091338 -0.52521,0.408209 -0.97009,1.035599 -1.53508,1.312839 -3.61522,-0.48028 -7.58126,0.198377 -10.42561,2.608056 -2.23636,1.863386 -3.52918,4.620725 -4.12739,7.422979 -0.52568,0.820667 -1.5935,1.056114 -2.20794,1.811041 -1.6711,1.66563 -2.808007,3.976961 -2.685738,6.37485 0.02956,0.971019 -0.1103,1.973114 -0.756716,2.741845 -1.835787,3.40638 -2.260694,7.5943 -1.060547,11.28125 0.404613,1.02041 0.849865,2.45331 2.164061,2.50976 0.94466,0.16295 2.09558,-0.33116 2.16909,-1.39382 0.19894,-1.94661 -0.9505,-3.7385 -0.80436,-5.69249 0.026,-1.35848 0.1946,-2.51856 0.78176,-3.74572 1.18098,1.08389 2.63742,1.9642 4.21481,2.29824 1.83315,0.0776 2.77538,-2.80235 1.15242,-3.7631 -1.41847,-0.7844 -2.97056,-1.73087 -3.46957,-3.382462 -0.70025,-2.187383 1.02229,-4.403832 2.9878,-5.188446 1.32648,-0.587213 2.753,-0.142256 4.11258,0.0065 1.04278,0.123509 2.04313,-0.669023 2.10513,-1.728015 0.243,-1.268321 -0.96492,-2.185607 -2.0744,-2.429802 -0.67481,-0.200084 -1.37555,-0.289202 -2.07174,-0.379293 0.68999,-2.234933 2.3792,-4.04969 4.6319,-4.754207 2.37818,-0.823999 4.883,-0.405661 7.31732,-0.261418 1.48742,-1.757854 3.13716,-3.532872 5.3789,-4.292969 2.80396,-1.059244 5.90341,-0.581486 8.65235,0.41211 -0.17241,1.119783 -0.35091,2.662096 0.81759,3.320569 1.05554,0.599432 2.43541,0.02899 2.90577,-1.056961 0.48526,-1.122945 1.11885,-2.266013 2.25075,-2.856938 1.45947,-0.844019 3.2819,-0.952808 4.86878,-0.261562 1.59662,0.670305 2.72487,2.304325 2.64477,4.056776 0.0431,1.104001 -0.0911,2.645498 1.10609,3.208272 1.02548,0.399004 2.57313,0.125558 2.80602,-1.133473 0.3315,-1.479138 0.1437,-3.01421 0.18812,-4.516917 2.83042,0.164003 5.55906,1.287983 7.82812,2.960937 1.12107,0.840402 2.18193,2.095859 2.9182,3.384237 1.86278,3.107072 1.97886,7.15126 0.26501,10.346819 -0.54833,0.955649 -0.59512,2.343525 0.39115,3.037029 0.53581,0.55991 1.40488,0.85308 2.07408,0.33348 1.24231,-0.877727 1.79272,-2.418514 2.29754,-3.794327 0.18942,-0.573508 0.30984,-1.166931 0.4466,-1.754504 1.70206,-0.104831 3.50707,0.58314 4.60211,1.905628 0.88641,1.209377 1.19722,2.894963 0.41113,4.235213 -0.55599,1.21675 -1.76178,1.86155 -2.88629,2.45486 -0.95926,0.48511 -1.46866,1.63393 -1.07422,2.65235 0.3392,1.24923 1.89023,1.5421 2.94235,1.04628 0.66101,-0.46719 0.72792,0.0537 0.65937,0.63652 0.13879,3.25702 -1.94064,6.46295 -5.01463,7.58904 -1.49299,0.60174 -3.14368,0.69198 -4.72771,0.49769 0.46024,-1.98762 0.14182,-4.29513 -1.38118,-5.76002 -0.94277,-1.07594 -3.01922,-0.88042 -3.47234,0.56666 -0.39305,1.08922 0.32327,2.09425 0.78516,3.01953 0.2815,0.96779 -0.63428,1.76325 -1.34766,2.24805 -1.14488,0.19012 -2.26141,-0.30521 -3.19726,-0.89258 -1.0885,-0.59164 -2.65917,-0.0358 -2.87695,1.25195 -0.40685,1.42358 0.80796,2.64542 2.01139,3.1656 1.88429,0.89946 4.16727,1.06248 6.09407,0.19768 0.95348,-0.10465 1.84869,0.45767 2.81055,0.46289 1.7437,0.16058 3.52865,0.12157 5.23047,-0.31836 -1.94483,2.83875 -4.93017,4.67668 -8.24323,5.53769 -1.05219,0.31038 -2.46425,0.64066 -2.65911,1.92716 -0.28857,1.24635 0.76579,2.69905 2.1173,2.45548 1.45925,-0.1048 2.82268,-0.68938 4.22449,-1.059 2.07847,3.02176 3.78132,6.55555 3.67578,10.30274 0.18455,0.83918 -0.32224,0.97108 -1.04821,0.87874 -0.70074,0.0244 -1.40145,0.0496 -2.10218,0.0744 -1.06996,-3.42386 -4.11335,-5.7631 -7.1744,-7.36091 -2.36132,-1.31736 -5.0299,-1.89309 -7.47909,-3.00002 -1.04699,-0.68363 -1.66782,-2.0267 -1.57893,-3.26993 1.45666,-0.33325 2.97776,-0.57639 4.32617,-1.24219 1.2931,-0.85665 1.11991,-3.16874 -0.42287,-3.6394 -1.46738,-0.40544 -2.87187,0.50462 -4.32592,0.5972 -2.69072,0.4298 -5.47345,0.0287 -7.96966,-1.04635 -0.97819,-0.42325 -2.23306,-0.42807 -2.98819,0.4237 -2.19409,2.33153 -5.62585,3.0653 -8.71684,2.79381 -2.79186,-0.20032 -5.72714,-1.81701 -6.57261,-4.63286 -0.64768,-1.99448 0.0778,-4.16844 1.39971,-5.71666 0.74675,-0.92636 0.81919,-2.45602 -0.22092,-3.20126 -0.76922,-0.78762 -2.00646,-0.41906 -2.69688,0.28127 -0.39965,0.22193 -0.75457,1.00268 -1.25535,0.58782 -1.66028,-0.60738 -3.4031,-1.15525 -5.18426,-1.1847 -1.02758,-0.0536 -1.86047,0.84701 -1.82941,1.85462 -0.20869,1.29593 1.05532,2.17459 2.1966,2.33879 1.10806,0.30327 2.30742,0.54117 3.32488,1.01863 -0.18072,0.43543 0.0442,1.13852 -0.60898,1.18261 -1.97836,0.70247 -4.11373,0.84407 -6.17511,0.46802 -0.80306,-0.11028 -1.60635,-0.21897 -2.40926,-0.33031 -0.68918,0.74146 -1.48049,1.7484 -1.03516,2.82031 0.6112,1.47307 2.43401,1.68892 3.82617,1.82617 2.18849,0.16798 4.37819,-0.13596 6.5332,-0.46289 0.66235,1.13549 1.16818,2.39262 2.11122,3.34849 2.74019,3.05981 7.01807,4.49302 11.06566,4.04304 3.02467,-0.28203 6.0708,-1.21133 8.47547,-3.11614 1.53144,0.45096 3.10023,0.85465 4.6917,1.0844 0.35803,0.27184 0.17344,1.04709 0.35064,1.5144 0.40441,2.38913 1.89351,4.62289 4.14217,5.62877 2.37378,1.1346 5.01719,1.61588 7.31896,2.92524 2.18152,1.10388 4.10257,2.83821 5.04731,5.13235 0.60194,1.30147 1.80837,2.44751 3.32063,2.42305 1.75277,0.082 3.5477,0.17547 5.27507,-0.17696 1.56172,-0.51312 2.59919,-2.08398 2.59948,-3.70916 0.2835,-4.8163 -1.33632,-9.62669 -4.17565,-13.49396 2.89025,-2.05935 5.08712,-5.03699 6.44326,-8.29922 0.46416,-1.29893 0.99767,-2.57144 1.79111,-3.7086 1.67319,-2.59804 2.15777,-5.80805 1.68548,-8.8315 -0.0251,-0.81401 -0.67269,-1.62745 -0.11305,-2.39603 1.02211,-1.87135 1.51079,-4.103082 0.89563,-6.1885 -0.70865,-2.833561 -3.01876,-5.17954 -5.76493,-6.109358 -1.11319,-0.363977 -2.28804,-0.430283 -3.44727,-0.515624 -0.52856,-4.092944 -2.58606,-8.015605 -5.88418,-10.543383 -2.19804,-1.697955 -4.77579,-2.949792 -7.49472,-3.534743 -1.96215,-0.347444 -3.95309,-0.09456 -5.84025,-0.510447 -1.27096,-0.536367 -2.40626,-1.416956 -3.79298,-1.681771 -1.04071,-0.254946 -2.11834,-0.304778 -3.18513,-0.241375 z m -12.97266,14.910156 c -2.06675,0.161921 -3.82983,1.886712 -4.34179,3.847656 -0.39713,2.076317 -0.14723,4.551058 1.48632,6.060547 1.295,1.170732 3.2809,1.732102 4.88816,0.858332 2.48122,-1.029151 3.4461,-4.088707 2.87717,-6.561831 -0.44197,-2.281954 -2.46921,-4.365062 -4.90986,-4.204704 z m 18.2793,0.0332 c -2.86032,0.263631 -4.89369,3.262735 -4.51621,6.027874 0.16904,2.211185 1.57743,4.459431 3.82676,5.009238 1.78875,0.47072 3.74761,-0.488293 4.80078,-1.941409 1.01724,-1.555498 1.1284,-3.565352 0.78388,-5.34646 -0.434,-1.4517 -1.51934,-2.735556 -2.87763,-3.407446 -0.63001,-0.2859 -1.32905,-0.395311 -2.01758,-0.341797 z m -17.90234,4.291016 c 0.66017,0.559484 0.50802,1.671296 0.1621,2.373047 -0.40438,0.69488 -0.74793,-0.39741 -0.80362,-0.766669 -0.0912,-0.523679 -0.0334,-1.530796 0.64152,-1.606378 z m 18.30468,0 c 0.65593,0.557623 0.51493,1.671162 0.16211,2.371094 -0.39627,0.698241 -0.74999,-0.386981 -0.79976,-0.756896 -0.0955,-0.522806 -0.0387,-1.539415 0.63765,-1.614198 z m -18.64453,10.994136 c -1.31343,0.1016 -2.27011,1.66576 -1.62076,2.86145 0.94769,1.87623 2.76117,3.14018 4.52905,4.18194 2.01142,1.13435 4.29861,1.84731 6.62722,1.69587 3.87881,0.0461 7.70907,-1.6868 10.23833,-4.62586 0.77212,-0.78288 1.56624,-2.08335 0.7789,-3.12511 -0.54633,-0.90387 -1.8169,-1.32011 -2.69765,-0.63186 -1.17434,0.89972 -2.11458,2.10256 -3.44688,2.80373 -2.91225,1.7967 -6.79114,1.81792 -9.70118,0.006 -1.48704,-0.77071 -2.42946,-2.26919 -3.91797,-3.01953 -0.24963,-0.10045 -0.51949,-0.16171 -0.78906,-0.14649 z"
       style="fill:#ffffff;stroke-width:0.244073"
       id="path2437" />
  </g>
</svg>
