<?xml version="1.0" encoding="UTF-8" standalone="no"?>
<svg
   xmlns:dc="http://purl.org/dc/elements/1.1/"
   xmlns:cc="http://creativecommons.org/ns#"
   xmlns:rdf="http://www.w3.org/1999/02/22-rdf-syntax-ns#"
   xmlns:svg="http://www.w3.org/2000/svg"
   xmlns="http://www.w3.org/2000/svg"
   xmlns:sodipodi="http://sodipodi.sourceforge.net/DTD/sodipodi-0.dtd"
   xmlns:inkscape="http://www.inkscape.org/namespaces/inkscape"
   width="1000"
   height="1000"
   viewBox="0 0 264.58333 264.58333"
   version="1.1"
   id="svg2761"
   inkscape:version="1.0 (4035a4fb49, 2020-05-01)"
   sodipodi:docname="division_sign.svg">
  <defs
     id="defs2755" />
  <sodipodi:namedview
     inkscape:snap-page="true"
     units="px"
     id="base"
     pagecolor="#a9a9a9"
     bordercolor="#000000"
     borderopacity="1"
     inkscape:pageopacity="0"
     inkscape:pageshadow="2"
     inkscape:zoom="0.35"
     inkscape:cx="400"
     inkscape:cy="560"
     inkscape:document-units="mm"
     inkscape:current-layer="layer2"
     inkscape:document-rotation="0"
     showgrid="false"
     inkscape:window-width="1920"
     inkscape:window-height="1052"
     inkscape:window-x="-8"
     inkscape:window-y="-8"
     inkscape:window-maximized="1"
     inkscape:pagecheckerboard="true"
     showborder="true"
     borderlayer="true"
     inkscape:showpageshadow="false" />
  <metadata
     id="metadata2758">
    <rdf:RDF>
      <cc:Work
         rdf:about="">
        <dc:format>image/svg+xml</dc:format>
        <dc:type
           rdf:resource="http://purl.org/dc/dcmitype/StillImage" />
        <dc:title></dc:title>
      </cc:Work>
    </rdf:RDF>
  </metadata>
  <g
     inkscape:label="layer 1"
     id="layer2"
     inkscape:groupmode="layer">
    <path
       id="rect844"
       style="fill:#000000;stroke:none;stroke-width:9.99998;stroke-linecap:round;stroke-linejoin:round;stroke-miterlimit:4;stroke-dasharray:none"
       d="m 132.09246,47.040023 a 24.588797,24.588797 0 0 0 -24.38922,24.67188 24.588797,24.588797 0 0 0 24.55717,24.504965 24.588797,24.588797 0 0 0 24.61969,-24.44192 24.588797,24.588797 0 0 0 -24.32616,-24.733891 z M 50.459708,114.14859 v 36.28615 H 214.12363 v -36.28615 z m 81.800702,54.21787 a 24.588797,24.588797 0 0 0 -24.55717,24.50497 24.588797,24.588797 0 0 0 24.38922,24.67188 l 0.46148,-0.001 a 24.588797,24.588797 0 0 0 24.32616,-24.73395 24.588797,24.588797 0 0 0 -24.61969,-24.44192 z" />
  </g>
</svg>
