<?xml version="1.0" encoding="UTF-8" standalone="no"?>
<svg
   xmlns:dc="http://purl.org/dc/elements/1.1/"
   xmlns:cc="http://creativecommons.org/ns#"
   xmlns:rdf="http://www.w3.org/1999/02/22-rdf-syntax-ns#"
   xmlns:svg="http://www.w3.org/2000/svg"
   xmlns="http://www.w3.org/2000/svg"
   xmlns:sodipodi="http://sodipodi.sourceforge.net/DTD/sodipodi-0.dtd"
   xmlns:inkscape="http://www.inkscape.org/namespaces/inkscape"
   sodipodi:docname="be_dynamic_icon.svg"
   inkscape:version="1.0 (4035a4fb49, 2020-05-01)"
   id="svg2761"
   version="1.1"
   viewBox="0 0 264.58333 264.58333"
   height="1000"
   width="1000">
  <defs
     id="defs2755" />
  <sodipodi:namedview
     inkscape:showpageshadow="false"
     borderlayer="true"
     showborder="true"
     inkscape:pagecheckerboard="true"
     inkscape:window-maximized="1"
     inkscape:window-y="-8"
     inkscape:window-x="-8"
     inkscape:window-height="1052"
     inkscape:window-width="1920"
     showgrid="false"
     inkscape:document-rotation="0"
     inkscape:current-layer="layer2"
     inkscape:document-units="mm"
     inkscape:cy="524.4929"
     inkscape:cx="-331.02059"
     inkscape:zoom="0.24748737"
     inkscape:pageshadow="2"
     inkscape:pageopacity="0"
     borderopacity="1"
     bordercolor="#000000"
     pagecolor="#a9a9a9"
     id="base"
     units="px"
     inkscape:snap-page="true"
     inkscape:snap-global="false" />
  <metadata
     id="metadata2758">
    <rdf:RDF>
      <cc:Work
         rdf:about="">
        <dc:format>image/svg+xml</dc:format>
        <dc:type
           rdf:resource="http://purl.org/dc/dcmitype/StillImage" />
        <dc:title />
      </cc:Work>
    </rdf:RDF>
  </metadata>
  <g
     inkscape:groupmode="layer"
     id="layer2"
     inkscape:label="layer 1">
    <path
       inkscape:transform-center-x="-3.4673677e-06"
       inkscape:transform-center-y="-3.291493e-06"
       inkscape:randomized="0"
       inkscape:rounded="0"
       inkscape:flatsided="false"
       sodipodi:arg2="1.2042693"
       sodipodi:arg1="0.8115702"
       sodipodi:r2="105.65324"
       sodipodi:r1="127.29306"
       sodipodi:cy="132.29169"
       sodipodi:cx="132.29166"
       sodipodi:sides="8"
       id="path5396"
       style="fill:none;fill-opacity:1;stroke:#ffffff;stroke-width:4;stroke-linecap:round;stroke-miterlimit:4;stroke-dasharray:none"
       sodipodi:type="star"
       d="m 219.91515,224.62612 -49.75998,6.30106 -41.19465,28.61397 L 89.319375,228.81106 39.957225,219.91518 33.656162,170.1552 5.04219,128.96055 35.772284,89.319405 44.668166,39.957256 94.428145,33.656192 135.62279,5.0422205 l 39.64115,30.7300935 49.36215,8.895883 6.30106,49.759979 28.61397,41.194654 -30.73009,39.64114 z" />
    <path
       id="path5398"
       style="fill:#ffffff;stroke-width:0.0935301"
       d="m 83.026484,194.69376 c -10.661853,-1.92335 -16.772259,-15.22237 -11.177895,-24.53503 2.404887,-5.35271 9.097482,-7.72681 13.404663,-9.18213 -4.976392,-12.64155 -10.730802,-24.99162 -15.2573,-37.79942 0.360255,-6.19013 9.257649,-6.19719 13.60828,-9.02172 4.637253,-2.84346 11.986035,-4.55967 12.994507,2.86068 3.412141,8.03753 6.675981,16.13701 10.008041,24.20788 8.11384,1.29011 2.52659,-7.06928 2.30222,-11.4863 -2.52324,-11.2996 -5.41533,-22.55588 -7.82228,-33.863151 0.4491,-7.919045 0.0663,-15.975194 1.34895,-23.776121 6.1258,-7.536578 10.77041,3.691643 13.27492,8.520951 1.94179,4.07764 4.75786,7.823991 6.12215,12.120584 3.29439,14.045207 6.5376,28.102777 9.89351,42.133387 2.76155,-1.76745 6.12258,-3.04544 5.05836,-6.86707 -0.004,-6.88891 0.5769,-13.75311 1.59772,-20.56303 -3.64071,-4.40071 -5.32764,-10.926022 -1.90247,-15.966737 4.13155,-5.472229 10.53637,-10.801574 9.55863,-18.407526 0.26532,-8.420846 8.84068,1.707744 10.62522,4.8444 6.58525,8.334982 7.51217,20.946474 0.7667,29.464813 -0.98109,2.41383 -0.22638,5.3667 -0.5629,7.98245 0.96088,4.06115 -2.37361,10.8292 -0.0487,13.47039 5.51263,3.54279 8.25629,1.30641 9.40923,-4.77187 2.49008,-5.80193 4.84562,-11.70434 5.51008,-18.0396 3.21723,-4.27681 9.05854,-6.361123 13.50282,-9.491693 7.34513,-6.113326 6.70605,6.892133 8.44154,11.228953 3.87877,7.07433 -3.19562,11.79769 -5.43079,17.95027 -3.50281,8.36456 -6.94295,16.75522 -10.40706,25.13584 0.66654,3.53105 0.30732,7.13884 0.2495,10.70567 9.68588,-0.27506 18.09565,9.16978 16.57534,18.77959 -0.74522,8.45991 -9.13935,15.61311 -17.63395,14.59058 -31.05943,-0.0487 -62.12281,0.24463 -93.17913,-0.1424 l -0.833273,-0.084 z m 98.276746,-4.26933 c 8.2457,-1.74377 12.52903,-12.64995 7.16822,-19.35703 -3.01969,-6.36435 -10.93174,-3.82674 -15.26588,-6.30982 0.48684,-5.15902 1.62213,-10.62504 -0.23976,-15.74523 -3.65343,-12.50141 -18.53879,-20.07145 -30.73136,-15.34335 -6.90431,2.37507 -12.07866,8.27365 -14.93624,14.8194 -5.24908,0.51726 -10.93588,-5.39385 -17.19854,-3.45498 -9.79231,0.98547 -17.304242,10.12719 -17.509258,19.78118 -3.379828,3.11578 -10.348883,-0.89802 -13.967866,3.8055 -7.295597,5.33239 -5.531928,17.78298 2.791187,21.08644 5.705909,1.67634 11.890739,0.61681 17.80635,0.98967 27.357867,0.0615 54.734287,0.342 82.082957,-0.27202 z m -58.69929,-10.31979 c -5.47077,-7.36911 1.7274,-19.27336 10.8051,-18.36286 5.49986,-1.89712 7.93414,6.49062 12.63937,4.12292 4.76882,-2.01804 15.4283,5.82731 8.91364,8.89282 -3.06686,-4.57633 -8.28447,-5.88889 -12.95763,-3.18941 -2.75182,-5.0681 -10.15944,-8.08883 -14.63391,-3.26865 -5.61603,2.68299 2.03836,12.70156 -4.76657,11.80518 z m -22.50147,-16.74853 c -3.306869,-4.80302 2.78455,-12.29882 8.13282,-12.13068 3.91918,4.53654 -6.84357,5.72532 -5.36555,11.42356 -0.51909,0.94214 -1.8586,1.20174 -2.76727,0.70712 z m 35.1628,-15.09816 c -1.67251,-5.23612 4.56289,-10.68535 9.61535,-11.62871 6.70379,-0.97281 3.34928,5.34615 -1.40828,4.94676 -4.15985,0.46675 -4.01965,9.68868 -8.20707,6.68195 z m -45.584164,9.14513 c 2.063131,-6.42149 6.934124,-11.75084 12.982154,-14.66513 -0.67219,-8.83721 -9.120789,2.87632 -12.195617,-2.34276 0.326178,-4.52297 13.555097,-4.49516 6.555856,-9.0592 -7.3999,3.90177 -6.201625,-3.44075 -1.131822,-4.92327 -0.197167,-7.33375 -14.373092,5.60307 -10.808573,-3.64667 2.219404,-1.54636 6.19414,-2.11498 7.765876,-3.77422 -1.135778,-6.43306 -7.783037,0.14239 -11.708846,0.79304 -3.980456,1.48423 -9.269698,2.71938 -5.122502,7.57936 4.341137,10.52944 8.655317,21.07123 13.11019,31.55295 l 0.18743,-0.44484 0.365124,-1.06926 z m 89.451214,-20.74651 c 0.70895,-3.22776 6.0226,-9.24372 -0.43815,-8.28052 -4.2804,0.0365 -8.64825,-8.13958 -9.53204,-0.28906 -5.28023,6.18216 3.34916,9.02124 5.5351,14.35399 1.57642,5.17903 3.26335,-4.55881 4.43534,-5.78417 z m -51.73072,3.08389 c 1.64592,-1.74736 -0.33043,-4.21231 -0.40833,-6.30118 -2.68749,-11.46208 -5.32502,-22.93634 -8.08043,-34.382232 -7.71828,0.944092 2.1633,11.994192 -5.42884,10.991322 -2.22281,-3.34423 -0.7115,-9.25206 -6.67835,-8.26202 2.93718,12.97016 5.98279,25.91806 9.13314,38.83808 8.04002,4.11458 1.3784,-7.26663 1.47522,-11.34951 0.0797,-3.57322 -5.71382,-13.50872 1.06385,-12.24363 2.93158,8.38604 4.2274,17.34356 6.53924,25.94788 1.1112,-0.62381 1.47577,-2.33387 2.38426,-3.23871 z m 15.81661,-10.77747 c 6.15428,-0.0615 10.38327,-1.50949 9.22753,-8.5613 -1.9284,-1.56456 -7.2516,-0.0931 -10.30081,-1.11856 -1.29412,1.16596 -2.36697,10.25353 0.29819,9.90337 l 0.77455,-0.22211 z m 40.48211,-5.07924 c 2.14517,-3.43606 5.98815,-7.50554 6.70629,-11.36879 -0.93459,-2.2645 -1.23327,-11.02534 -3.13288,-6.26887 -0.0767,3.45188 -5.61256,9.36883 -5.79275,3.01562 1.01401,-3.07568 4.83339,-9.63726 -0.63708,-5.08453 -6.30076,1.80657 -5.58895,8.41153 -7.48351,13.43685 -0.98998,4.69914 6.3955,7.99244 10.33993,6.26954 z m -31.50725,-8.39547 c 0.46006,-1.85422 1.97301,-7.32681 -2.09319,-6.1656 -4.15237,-0.35478 -9.35806,-1.62888 -8.27687,4.41027 0.78539,2.65664 7.52721,1.61263 10.37006,1.75533 z m 2.44718,-11.57764 c 6.1311,-8.452494 2.54169,-20.213066 -4.25484,-27.122179 -1.39617,6.845216 -6.53042,11.952566 -10.45708,17.41798 -2.12423,3.350557 -0.94007,10.948959 4.01502,10.526519 3.47975,-0.40042 8.32013,2.20267 10.69697,-0.82245 z m -5.00882,-1.83578 c -2.35682,-3.70181 2.8922,-8.793338 1.46889,-13.540432 6.46427,-2.945148 4.16016,9.59478 1.31384,12.531222 -0.49353,0.93868 -1.77396,1.63947 -2.78273,1.00921 z M 113.1571,97.794085 c 5.88822,-2.241555 3.34818,-7.625059 0.85159,-11.354737 -1.63624,0.973237 -7.02486,1.37317 -8.3774,2.257864 -1.55555,5.091345 1.18513,11.327898 7.52611,9.096995 z m -2.88296,-14.556932 c 2.63942,-1.820993 -2.39582,-8.566713 -4.08555,-9.156571 -0.26958,3.214062 -0.29088,6.443398 -0.4205,9.665432 1.50802,0.329828 3.1159,0.184996 4.50562,-0.508739 z" />
  </g>
</svg>
