<?xml version="1.0" encoding="UTF-8" standalone="no"?>
<svg
   xmlns:dc="http://purl.org/dc/elements/1.1/"
   xmlns:cc="http://creativecommons.org/ns#"
   xmlns:rdf="http://www.w3.org/1999/02/22-rdf-syntax-ns#"
   xmlns:svg="http://www.w3.org/2000/svg"
   xmlns="http://www.w3.org/2000/svg"
   xmlns:sodipodi="http://sodipodi.sourceforge.net/DTD/sodipodi-0.dtd"
   xmlns:inkscape="http://www.inkscape.org/namespaces/inkscape"
   sodipodi:docname="be_flexible_icon.svg"
   inkscape:version="1.0 (4035a4fb49, 2020-05-01)"
   id="svg2761"
   version="1.1"
   viewBox="0 0 264.58333 264.58333"
   height="1000"
   width="1000">
  <defs
     id="defs2755" />
  <sodipodi:namedview
     inkscape:showpageshadow="false"
     borderlayer="true"
     showborder="true"
     inkscape:pagecheckerboard="true"
     inkscape:window-maximized="1"
     inkscape:window-y="-8"
     inkscape:window-x="-8"
     inkscape:window-height="1052"
     inkscape:window-width="1920"
     showgrid="false"
     inkscape:document-rotation="0"
     inkscape:current-layer="layer2"
     inkscape:document-units="mm"
     inkscape:cy="524.4929"
     inkscape:cx="-331.02059"
     inkscape:zoom="0.24748737"
     inkscape:pageshadow="2"
     inkscape:pageopacity="0"
     borderopacity="1"
     bordercolor="#000000"
     pagecolor="#a9a9a9"
     id="base"
     units="px"
     inkscape:snap-page="true"
     inkscape:snap-global="false" />
  <metadata
     id="metadata2758">
    <rdf:RDF>
      <cc:Work
         rdf:about="">
        <dc:format>image/svg+xml</dc:format>
        <dc:type
           rdf:resource="http://purl.org/dc/dcmitype/StillImage" />
        <dc:title />
      </cc:Work>
    </rdf:RDF>
  </metadata>
  <g
     inkscape:groupmode="layer"
     id="layer2"
     inkscape:label="layer 1">
    <path
       sodipodi:type="star"
       style="fill:none;fill-opacity:1;stroke:#ffffff;stroke-width:4;stroke-linecap:round;stroke-miterlimit:4;stroke-dasharray:none"
       id="path5392"
       sodipodi:sides="8"
       sodipodi:cx="132.29167"
       sodipodi:cy="132.2917"
       sodipodi:r1="127.29306"
       sodipodi:r2="105.65324"
       sodipodi:arg1="0.8115702"
       sodipodi:arg2="1.2042693"
       inkscape:flatsided="false"
       inkscape:rounded="0"
       inkscape:randomized="0"
       inkscape:transform-center-y="-3.2914927e-06"
       inkscape:transform-center-x="3.636134e-06"
       d="M 219.91516,224.62613 170.15518,230.9272 128.96053,259.54117 89.31939,228.81108 39.957241,219.91519 33.656177,170.15521 5.0422053,128.96056 35.772299,89.319421 44.668182,39.957271 94.42816,33.656207 135.62281,5.0422358 l 39.64114,30.7300932 49.36215,8.895883 6.30107,49.759979 28.61397,41.194649 -30.7301,39.64114 z" />
    <path
       d="m 172.24498,104.20848 c -3.53586,0 -6.3831,2.84736 -6.3831,6.38315 v 68.92835 c 0,3.53567 2.84724,6.38303 6.3831,6.38303 h 31.14474 c 3.53586,0 6.38321,-2.84736 6.38321,-6.38303 v -68.92835 c 0,-3.53579 -2.84735,-6.38315 -6.38321,-6.38315 z m 3.98307,10.45002 h 23.1786 c 2.63126,0 4.74959,2.11839 4.74959,4.74971 v 51.29519 c 0,2.63126 -2.11833,4.74959 -4.74959,4.74959 h -23.1786 c -2.63126,0 -4.74965,-2.11833 -4.74965,-4.74959 v -51.29519 c 0,-2.63132 2.11839,-4.74971 4.74965,-4.74971 z M 74.723492,78.68025 c -3.818646,0 -6.892683,3.074159 -6.892683,6.892744 v 68.928346 c 0,0.43754 0.03651,0.86297 0.121708,1.27751 h -6.758682 c -3.535736,0 -6.383092,2.84577 -6.383092,6.38163 v 0.51117 c 0,3.5358 2.847356,6.38176 6.383092,6.38176 H 162.28726 v -7.65914 -5.6153 -3.87561 H 87.437949 c -2.942227,0 -5.310906,-2.36867 -5.310906,-5.3109 V 93.482424 c 0,-2.942349 2.368679,-5.310906 5.310906,-5.310906 h 85.367671 c 2.94229,0 5.31091,2.368557 5.31091,5.310906 v 6.386378 h 14.29636 V 85.573237 c 0,-3.818585 -3.07404,-6.892682 -6.89275,-6.892682 z"
       style="fill:#ffffff;fill-opacity:1;stroke:none;stroke-width:0.964395;stroke-linecap:round;stroke-miterlimit:4;stroke-dasharray:none"
       id="path5488" />
  </g>
</svg>
