<?xml version="1.0" encoding="UTF-8" standalone="no"?>
<svg
   xmlns:dc="http://purl.org/dc/elements/1.1/"
   xmlns:cc="http://creativecommons.org/ns#"
   xmlns:rdf="http://www.w3.org/1999/02/22-rdf-syntax-ns#"
   xmlns:svg="http://www.w3.org/2000/svg"
   xmlns="http://www.w3.org/2000/svg"
   xmlns:xlink="http://www.w3.org/1999/xlink"
   xmlns:sodipodi="http://sodipodi.sourceforge.net/DTD/sodipodi-0.dtd"
   xmlns:inkscape="http://www.inkscape.org/namespaces/inkscape"
   width="1000"
   height="1000"
   viewBox="0 0 264.58333 264.58333"
   version="1.1"
   id="svg2761"
   inkscape:version="1.0 (4035a4fb49, 2020-05-01)"
   sodipodi:docname="logo_icon.svg">
  <defs
     id="defs2755">
    <linearGradient
       id="linearGradient1755"
       inkscape:collect="always">
      <stop
         id="stop1749"
         offset="0"
         style="stop-color:#0089ff;stop-opacity:0.5" />
      <stop
         style="stop-color:#f2e863;stop-opacity:1"
         offset="0.50643784"
         id="stop1751" />
      <stop
         id="stop1753"
         offset="1"
         style="stop-color:#0089ff;stop-opacity:0.5" />
    </linearGradient>
    <linearGradient
       inkscape:collect="always"
       id="linearGradient1747">
      <stop
         style="stop-color:#f2e863;stop-opacity:1"
         offset="0"
         id="stop1741" />
      <stop
         id="stop1743"
         offset="0.50643784"
         style="stop-color:#0089ff;stop-opacity:0.5" />
      <stop
         style="stop-color:#f2e863;stop-opacity:1"
         offset="1"
         id="stop1745" />
    </linearGradient>
    <linearGradient
       gradientTransform="matrix(0.26458332,0,0,0.26458332,-216.43071,-186.46735)"
       gradientUnits="userSpaceOnUse"
       y2="4581.9312"
       x2="450.62402"
       y1="4694.812"
       x1="307.29193"
       id="linearGradient1335"
       xlink:href="#linearGradient1747"
       inkscape:collect="always" />
    <linearGradient
       gradientTransform="matrix(0.26458332,0,0,0.26458332,-216.43071,-186.46735)"
       gradientUnits="userSpaceOnUse"
       y2="4784.3672"
       x2="379.87891"
       y1="4492.3789"
       x1="378.95703"
       id="linearGradient1345"
       xlink:href="#linearGradient1755"
       inkscape:collect="always" />
  </defs>
  <sodipodi:namedview
     inkscape:snap-page="true"
     units="px"
     id="base"
     pagecolor="#a9a9a9"
     bordercolor="#000000"
     borderopacity="1"
     inkscape:pageopacity="0"
     inkscape:pageshadow="2"
     inkscape:zoom="0.35"
     inkscape:cx="513.20126"
     inkscape:cy="766.40524"
     inkscape:document-units="mm"
     inkscape:current-layer="layer2"
     inkscape:document-rotation="0"
     showgrid="false"
     inkscape:window-width="1920"
     inkscape:window-height="1052"
     inkscape:window-x="-8"
     inkscape:window-y="-8"
     inkscape:window-maximized="1"
     inkscape:pagecheckerboard="true"
     showborder="true"
     borderlayer="true"
     inkscape:showpageshadow="false" />
  <metadata
     id="metadata2758">
    <rdf:RDF>
      <cc:Work
         rdf:about="">
        <dc:format>image/svg+xml</dc:format>
        <dc:type
           rdf:resource="http://purl.org/dc/dcmitype/StillImage" />
        <dc:title></dc:title>
      </cc:Work>
    </rdf:RDF>
  </metadata>
  <g
     inkscape:label="layer 1"
     id="layer2"
     inkscape:groupmode="layer">
    <g
       style="display:inline"
       inkscape:export-ydpi="126.36"
       inkscape:export-xdpi="126.36"
       transform="matrix(2.1863974,0,0,2.1863974,423.3226,-2176.2371)"
       id="g1401">
      <path
         id="path1122"
         style="font-variation-settings:normal;vector-effect:none;fill:#000000;fill-opacity:1;stroke:none;stroke-width:0.517522;stroke-linecap:butt;stroke-linejoin:miter;stroke-miterlimit:4;stroke-dasharray:none;stroke-dashoffset:0;stroke-opacity:1;stop-color:#000000"
         d="m -115.92109,995.35297 c -1.48366,1.62105 -3.46053,3.13259 -5.72265,4.67363 -0.46399,0.3899 -0.94746,0.7292 -1.44849,0.9932 l -0.0491,10.5187 -0.12816,35.0894 -0.008,6.6983 v 26.1813 c 0.38613,7.291 -0.23547,12.6705 -1.38855,15.8946 -1.30521,3.6501 -2.56873,4.6855 -4.69428,5.4545 -3.76428,1.3614 -13.08785,-0.2361 -25.34626,-6.027 2.18842,-9.6846 5.17584,-16.7211 7.95145,-20.638 -1.28561,-6.6162 -0.65269,-12.3458 1.30948,-17.461 -4.83565,3.3114 -10.48585,4.1286 -14.50712,9.9338 -5.36588,7.7017 -8.16297,18.4281 -10.37404,30.9552 l -0.9307,5.2798 4.7346,2.5181 c 15.94831,8.4829 29.76661,13.8079 42.18192,9.3173 6.20771,-2.2454 11.15903,-7.615 13.57229,-14.3645 0.84408,-2.3608 1.47199,-5.0765 1.77819,-7.6894 0.78378,-6.6874 0.24185,-17.4775 0.24185,-17.4775 v -21.8772 l -0.003,-7.3164 0.0346,-34.4723 -0.032,-10.5198 c -0.49495,-0.2607 -0.97261,-0.5953 -1.43144,-0.9792 -2.2695,-1.54522 -4.25274,-3.06025 -5.74022,-4.68553 z" />
      <path
         style="font-variation-settings:normal;vector-effect:none;fill:#0089ff;fill-opacity:1;stroke:none;stroke-width:0.554342;stroke-linecap:butt;stroke-linejoin:miter;stroke-miterlimit:4;stroke-dasharray:none;stroke-dashoffset:0;stroke-opacity:1;stop-color:#000000"
         d="m -99.562913,1039.1994 c -0.172062,0.1553 -0.344136,0.3119 -0.508497,0.4521 0.165509,-0.1444 0.334806,-0.2921 0.508497,-0.4521 z"
         id="path1189" />
      <path
         style="font-variation-settings:normal;vector-effect:none;fill:#0089ff;fill-opacity:1;stroke:none;stroke-width:0.554342;stroke-linecap:butt;stroke-linejoin:miter;stroke-miterlimit:4;stroke-dasharray:none;stroke-dashoffset:0;stroke-opacity:1;stop-color:#000000"
         d="m -132.7676,1039.1994 c 0.17406,0.1604 0.34366,0.3089 0.50953,0.4537 -0.16451,-0.1402 -0.33737,-0.2984 -0.50953,-0.4537 z"
         id="path1187" />
      <path
         d="m -115.91992,998.0625 c -1.343,1.22126 -2.84141,2.3999 -4.48438,3.5273 0.0145,-0.011 0.0327,-0.019 0.0469,-0.031 l -0.16016,0.1211 c 0.0418,-0.029 0.0716,-0.061 0.11328,-0.09 -0.21545,0.1713 -0.46438,0.3098 -0.6914,0.4727 l -0.0449,9.4863 -0.12891,35.086 -0.008,6.6933 v 26.127 c 0.38678,7.3884 -0.23531,13.0685 -1.50586,16.6211 -1.49975,4.1941 -3.16671,5.6745 -5.89649,6.6621 -4.49652,1.6262 -14.50959,-0.2554 -26.88086,-6.0996 l -1.45117,-0.6856 0.35352,-1.5644 c 2.11049,-9.3398 5.00098,-16.3469 7.83593,-20.627 -0.80935,-4.6732 -0.72156,-8.9426 0.11329,-12.8945 -3.5965,1.7641 -6.96954,3.1387 -9.59961,6.9355 -5.13528,7.3707 -7.84991,17.7058 -10.04883,30.1641 l -0.67969,3.8477 3.45313,1.8378 c 15.84592,8.4285 28.95379,13.4001 40.5625,9.2012 5.58868,-2.0215 10.12908,-6.8911 12.36914,-13.1562 0.79362,-2.2197 1.38551,-4.7711 1.67578,-7.2481 0.0744,-0.6346 0.1374,-1.3146 0.18945,-2.0273 0.0468,-0.6415 0.0847,-1.306 0.11523,-1.9844 0,0 0.49363,-1.8208 -0.0742,-13.1348 l -0.002,-0.049 v -21.9277 l -0.004,-7.3145 0.0351,-34.4765 -0.0293,-9.4747 c -0.21841,-0.1569 -0.45803,-0.2913 -0.66602,-0.455 0.0396,0.027 0.0676,0.059 0.10742,0.086 l -0.1582,-0.1191 c 0.0152,0.013 0.0351,0.021 0.0508,0.033 -1.652,-1.1327 -3.15849,-2.31611 -4.50781,-3.543 z"
         style="font-variation-settings:normal;vector-effect:none;fill:#ffffff;fill-opacity:1;stroke:none;stroke-width:0.517522;stroke-linecap:butt;stroke-linejoin:miter;stroke-miterlimit:4;stroke-dasharray:none;stroke-dashoffset:0;stroke-opacity:1;stop-color:#000000"
         id="path1388" />
      <path
         id="path1254"
         style="font-variation-settings:normal;vector-effect:none;fill:#000000;fill-opacity:1;stroke:none;stroke-width:0.554342;stroke-linecap:butt;stroke-linejoin:miter;stroke-miterlimit:4;stroke-dasharray:none;stroke-dashoffset:0;stroke-opacity:1;stop-color:#000000"
         d="m -115.92058,999.67263 v 12.32527 c 7.08056,5.677 10.77634,10.8178 11.06134,13.4824 0.16093,1.5047 -0.0915,2.569 -1.90479,4.4251 -0.49918,0.5108 -1.13965,1.052 -1.92081,1.6128 v 11.1078 l 3.83232,-1.8578 c 0.37356,-0.2169 0.73195,-0.4309 1.04955,-0.6335 1.4822,-0.951 2.48273,-1.7019 4.104143,-3.3259 3.353361,-3.432 5.132247,-7.9858 4.662247,-12.3796 -0.939988,-8.7873 -8.1985,-15.5398 -17.98081,-22.6472 z m -7.24296,39.24247 -3.82509,1.8542 h -5.3e-4 c -0.37357,0.2173 -0.73195,0.4315 -1.04955,0.6341 -0.37056,0.2375 -0.71107,0.4625 -1.0387,0.6924 -0.49125,0.3441 -0.95391,0.6979 -1.44539,1.1178 -0.49152,0.42 -1.01201,0.9073 -1.62005,1.5162 -3.35338,3.4316 -5.13229,7.9853 -4.66225,12.3791 0.94,8.7871 8.19903,15.5393 17.98133,22.6467 l 2.90318,2.1099 v -12.3259 c -7.08059,-5.6769 -10.77637,-10.8178 -11.06134,-13.4824 -0.16102,-1.5047 0.0915,-2.5689 1.9048,-4.425 0.49746,-0.5092 1.13605,-1.0483 1.91357,-1.6071 z" />
      <path
         id="path1183"
         style="font-variation-settings:normal;vector-effect:none;fill:url(#linearGradient1335);fill-opacity:1;stroke:none;stroke-width:0.554342;stroke-linecap:butt;stroke-linejoin:miter;stroke-miterlimit:4;stroke-dasharray:none;stroke-dashoffset:0;stroke-opacity:1;stop-color:#000000"
         d="m -115.92058,1002.3189 v 7.3143 l 1.00511,0.8067 c 7.1778,5.7551 11.4301,11.3917 11.79773,14.829 0.22901,2.1424 -0.24446,3.7629 -2.46135,6.0322 -0.77708,0.7954 -1.82015,1.6252 -3.10575,2.465 v 6.7686 l 2.5895,-1.4956 c 0.35731,-0.2064 0.68363,-0.4037 0.96842,-0.5865 1.39218,-0.8932 2.25633,-1.5396 3.75946,-3.0437 2.991269,-3.064 4.500913,-7.0302 4.101043,-10.7684 -0.84886,-7.9352 -7.480423,-14.2018 -17.169493,-21.2416 z m -7.32771,38.455 -2.9869,1.724 c -0.35735,0.2064 -0.68377,0.4025 -0.96842,0.5855 -0.35967,0.231 -0.67534,0.4392 -0.97255,0.6475 -0.44028,0.3084 -0.85539,0.6274 -1.29243,1.0009 -0.43698,0.3736 -0.91574,0.8206 -1.48931,1.3943 -2.99437,3.0643 -4.50526,7.0305 -4.10518,10.7704 0.84885,7.9351 7.48049,14.2025 17.1695,21.2421 l 1.72857,1.2573 0.24443,-0.1778 v -7.3153 l -0.24443,0.1958 -1.25005,-1.0025 c -7.17788,-5.755 -11.42858,-11.3915 -11.79618,-14.8285 -0.229,-2.1426 0.24446,-3.7633 2.46135,-6.0327 0.87169,-0.8922 2.07725,-1.8281 3.58635,-2.7725 z" />
      <path
         style="font-variation-settings:normal;vector-effect:none;fill:#0089ff;fill-opacity:1;stroke:none;stroke-width:0.554342;stroke-linecap:butt;stroke-linejoin:miter;stroke-miterlimit:4;stroke-dasharray:none;stroke-dashoffset:0;stroke-opacity:1;stop-color:#000000"
         d="m -116.165,1002.1412 -0.14728,0.1069 0.39171,0.071 z"
         id="path1157" />
      <path
         id="path1301"
         style="font-variation-settings:normal;vector-effect:none;fill:#000000;fill-opacity:1;stroke:none;stroke-width:0.554342;stroke-linecap:butt;stroke-linejoin:miter;stroke-miterlimit:4;stroke-dasharray:none;stroke-dashoffset:0;stroke-opacity:1;stop-color:#000000"
         d="m -123.16354,1005.0671 c -7.53016,5.9624 -12.8471,11.9355 -13.64154,19.3621 -0.47,4.3938 1.30888,8.9476 4.66224,12.3796 1.62141,1.6241 2.62195,2.3749 4.10415,3.3259 0.3176,0.2026 0.67598,0.4167 1.04955,0.6336 l 11.06805,5.365 c 4.50016,1.9064 7.55479,3.859 9.15655,5.4984 1.81332,1.8561 2.06581,2.9203 1.90479,4.425 -0.16274,1.5217 -1.4425,3.8531 -3.82509,6.6286 v 13.7903 c 7.53378,-5.964 12.853581,-11.9386 13.648265,-19.3672 0.47004,-4.3938 -1.308868,-8.9475 -4.662247,-12.3791 -0.608038,-0.6089 -1.128538,-1.0962 -1.620058,-1.5162 -0.49148,-0.4199 -0.95414,-0.7737 -1.44539,-1.1178 -0.32763,-0.2299 -0.66813,-0.4549 -1.03869,-0.6924 -0.3176,-0.2026 -0.67598,-0.4168 -1.04955,-0.6341 h -5.3e-4 l -11.06806,-5.3651 v 0 c -4.50016,-1.9062 -7.55478,-3.8585 -9.15655,-5.4978 -1.81331,-1.8561 -2.06572,-2.9204 -1.90479,-4.4251 0.16262,-1.5204 1.4402,-3.8489 3.81889,-6.6213 z m 7.24297,64.4715 c 0,0 -5.3e-4,0 -5.3e-4,0 v 12.3259 h 5.3e-4 z" />
      <path
         id="path1308"
         style="font-variation-settings:normal;vector-effect:none;fill:url(#linearGradient1345);fill-opacity:1;stroke:none;stroke-width:0.554342;stroke-linecap:butt;stroke-linejoin:miter;stroke-miterlimit:4;stroke-dasharray:none;stroke-dashoffset:0;stroke-opacity:1;stop-color:#000000"
         d="m -123.11651,1007.5889 c -6.65777,5.4486 -11.02474,10.7198 -11.70213,17.0522 -0.39986,3.7381 1.10977,7.7043 4.10104,10.7683 1.50366,1.5047 2.36598,2.1515 3.75688,3.0438 0.2836,0.181 0.61412,0.3804 0.97358,0.5891 l 2.98328,1.7322 7.08277,3.1894 0.77877,0.3308 c 4.61412,1.9545 7.95541,4.0456 9.80715,5.9407 2.21714,2.2695 2.69061,3.8901 2.46135,6.0327 -0.24926,2.3304 -2.28912,5.6733 -5.81102,9.3772 v 8.2708 c 6.63479,-5.4367 10.986318,-10.6997 11.662339,-17.0191 0.400079,-3.7399 -1.110808,-7.7061 -4.105179,-10.7704 -0.57368,-0.5738 -1.05203,-1.0209 -1.48879,-1.3942 -0.43722,-0.3737 -0.85232,-0.6927 -1.29243,-1.001 -0.29818,-0.2093 -0.61114,-0.4148 -0.97255,-0.6465 -0.28358,-0.1809 -0.61493,-0.3798 -0.97514,-0.5891 l -2.98069,-1.7317 v 0 l -7.08277,-3.1894 h -10e-4 l -0.77877,-0.3303 c -4.6143,-1.9543 -7.95471,-4.0467 -9.80612,-5.9417 -2.21717,-2.2693 -2.69045,-3.8896 -2.46135,-6.0317 0.2498,-2.3352 2.29667,-5.6872 5.83169,-9.4004 z m 7.19594,64.5098 h -5.3e-4 v 7.2972 h 5.3e-4 z" />
    </g>
  </g>
</svg>
